# Split from McGuire Sponza by Generate-SponzaScene.ps1
v  511.8713 134.3402 -217.9138
v  487.7638 213.6973 -217.9138
v  487.1609 213.5141 -221.4872
v  511.2684 134.1570 -221.4872
v  465.3808 133.7513 -219.7005
v  489.0720 213.3199 -219.7005
v  485.5942 214.3549 -219.7005
v  461.9030 134.7863 -219.7005
v  513.3057 134.7760 -219.7005
v  489.1982 214.1330 -219.7005
v  485.7264 213.0783 -219.7005
v  509.8339 133.7213 -219.7005
v  463.4352 134.4115 -221.4872
v  488.6729 213.5032 -221.4872
v  488.0726 213.6947 -217.9138
v  462.8350 134.6030 -217.9138
v  -594.9648 134.3402 -217.9138
v  -619.0723 213.6973 -217.9138
v  -619.6752 213.5141 -221.4872
v  -595.5676 134.1570 -221.4872
v  -641.4552 133.7513 -219.7005
v  -617.7640 213.3199 -219.7005
v  -621.2418 214.3549 -219.7005
v  -644.9331 134.7863 -219.7005
v  -593.5303 134.7760 -219.7005
v  -617.6378 214.1330 -219.7005
v  -621.1097 213.0783 -219.7005
v  -597.0022 133.7213 -219.7005
v  -643.4009 134.4115 -221.4872
v  -618.1631 213.5032 -221.4872
v  -618.7634 213.6947 -217.9138
v  -644.0011 134.6030 -217.9138
v  -643.4435 134.3402 141.5550
v  -619.3361 213.6973 141.5550
v  -618.7332 213.5141 145.1284
v  -642.8406 134.1570 145.1284
v  -596.9531 133.7513 143.3417
v  -620.6443 213.3199 143.3417
v  -617.1665 214.3549 143.3417
v  -593.4753 134.7863 143.3417
v  -644.8781 134.7760 143.3417
v  -620.7705 214.1330 143.3418
v  -617.2986 213.0783 143.3418
v  -641.4061 133.7213 143.3417
v  -595.0075 134.4115 145.1284
v  -620.2452 213.5032 145.1284
v  -619.6449 213.6947 141.5550
v  -594.4072 134.6030 141.5550
v  463.3926 134.3402 141.5548
v  487.5000 213.6973 141.5549
v  488.1029 213.5141 145.1283
v  463.9954 134.1570 145.1283
v  509.8829 133.7513 143.3416
v  486.1918 213.3199 143.3416
v  489.6696 214.3549 143.3416
v  513.3608 134.7863 143.3416
v  461.9580 134.7760 143.3416
v  486.0656 214.1330 143.3416
v  489.5375 213.0783 143.3416
v  465.4299 133.7213 143.3416
v  511.8286 134.4115 145.1283
v  486.5908 213.5032 145.1283
v  487.1912 213.6947 141.5549
v  512.4288 134.6030 141.5548
vt 0.6770 0.0000 0.0000
vt 0.6770 3.0982 0.0000
vt 0.1467 3.0982 0.0000
vt 0.1467 0.0000 0.0000
vt 0.6770 0.0000 0.0000
vt 0.6789 3.1013 0.0000
vt 0.1485 3.1033 0.0000
vt 0.1467 0.0000 0.0000
vt 0.6770 0.0000 0.0000
vt 0.6770 3.0982 0.0000
vt 0.1467 3.0982 0.0000
vt 0.1467 0.0000 0.0000
vt 0.6770 0.0000 0.0000
vt 0.6774 3.1012 0.0000
vt 0.1471 3.1012 0.0000
vt 0.1467 0.0000 0.0000
vt 0.6770 0.0000 0.0000
vt 0.6770 3.0982 0.0000
vt 0.1467 3.0982 0.0000
vt 0.1467 0.0000 0.0000
vt 0.6770 0.0000 0.0000
vt 0.6789 3.1013 0.0000
vt 0.1485 3.1033 0.0000
vt 0.1467 0.0000 0.0000
vt 0.6770 0.0000 0.0000
vt 0.6770 3.0982 0.0000
vt 0.1467 3.0982 0.0000
vt 0.1467 0.0000 0.0000
vt 0.6770 0.0000 0.0000
vt 0.6774 3.1012 0.0000
vt 0.1471 3.1012 0.0000
vt 0.1467 0.0000 0.0000
vt 0.6770 0.0000 0.0000
vt 0.6770 3.0982 0.0000
vt 0.1467 3.0982 0.0000
vt 0.1467 0.0000 0.0000
vt 0.6770 0.0000 0.0000
vt 0.6789 3.1013 0.0000
vt 0.1485 3.1033 0.0000
vt 0.1467 0.0000 0.0000
vt 0.6770 0.0000 0.0000
vt 0.6770 3.0982 0.0000
vt 0.1467 3.0982 0.0000
vt 0.1467 0.0000 0.0000
vt 0.6770 0.0000 0.0000
vt 0.6774 3.1012 0.0000
vt 0.1471 3.1012 0.0000
vt 0.1467 0.0000 0.0000
vt 0.6770 0.0000 0.0000
vt 0.6770 3.0982 0.0000
vt 0.1467 3.0982 0.0000
vt 0.1467 0.0000 0.0000
vt 0.6770 0.0000 0.0000
vt 0.6789 3.1013 0.0000
vt 0.1485 3.1033 0.0000
vt 0.1467 0.0000 0.0000
vt 0.6770 0.0000 0.0000
vt 0.6770 3.0982 0.0000
vt 0.1467 3.0982 0.0000
vt 0.1467 0.0000 0.0000
vt 0.6770 0.0000 0.0000
vt 0.6774 3.1012 0.0000
vt 0.1471 3.1012 0.0000
vt 0.1467 0.0000 0.0000
vn -0.9423 -0.2863 0.1737
vn -0.0000 0.0000 1.0000
vn 0.0000 0.0000 1.0000
vn -0.0000 0.0000 1.0000
vn 0.9382 -0.2994 0.1736
vn -0.9423 -0.2863 0.1736
vn -0.9423 -0.2863 0.1737
vn -0.0000 0.0000 1.0000
vn 0.0000 0.0000 1.0000
vn -0.0000 0.0000 1.0000
vn 0.9382 -0.2994 0.1736
vn 0.9382 -0.2994 0.1737
vn 0.9423 -0.2863 -0.1737
vn 0.0000 0.0000 -1.0000
vn -0.0000 0.0000 -1.0000
vn 0.0000 0.0000 -1.0000
vn -0.9382 -0.2994 -0.1736
vn 0.9423 -0.2863 -0.1736
vn 0.9423 -0.2863 -0.1737
vn -0.0000 0.0000 -1.0000
vn 0.0000 0.0000 -1.0000
vn -0.0000 0.0000 -1.0000
vn -0.9382 -0.2994 -0.1736
vn -0.9382 -0.2994 -0.1737
f 1/1/1 2/2/1 3/3/1 4/4/1
f 5/5/2 6/6/3 7/7/2 8/8/2
f 9/9/4 10/10/4 11/11/4 12/12/4
f 13/13/5 14/14/5 15/15/5 16/16/5
f 17/17/6 18/18/7 19/19/7 20/20/6
f 21/21/8 22/22/9 23/23/8 24/24/8
f 25/25/10 26/26/10 27/27/10 28/28/10
f 29/29/11 30/30/12 31/31/12 32/32/11
f 33/33/13 34/34/13 35/35/13 36/36/13
f 37/37/14 38/38/15 39/39/14 40/40/14
f 41/41/16 42/42/16 43/43/16 44/44/16
f 45/45/17 46/46/17 47/47/17 48/48/17
f 49/49/18 50/50/19 51/51/19 52/52/18
f 53/53/20 54/54/20 55/55/20 56/56/20
f 57/57/21 58/58/22 59/59/22 60/60/21
f 61/61/23 62/62/24 63/63/24 64/64/23
